<svg xmlns="http://www.w3.org/2000/svg" viewBox="4.6 0 176.6 99.21"><title>changemakers</title><path d="M30,38.55v27.6H28.85V39.71h-.12L18.5,63.36H17.18L7,39.71H6.83V66.15H5.67V38.55h2L17.85,62.11,28,38.55Z"/><path d="M53.79,59.07H40.49l-2.43,7.08h-1.3l9.58-27.6h1.55l9.58,27.6H56.22ZM53.42,58,47.15,39.63,40.86,58Z"/><path d="M83.56,66.15H82.17L71.88,49.91h-.14L65.4,56.43v9.72H64.24V38.55H65.4V54.78h.16L81.18,38.55h1.58L72.66,49Z"/><path d="M90.29,38.55h17v1.08H91.45V51.72h13.9v1.05H91.45V65.08h16.64v1.07H90.29Z"/><path d="M130.9,66.15l-8-12.62c-.86.07-1.85.1-2.94.1h-3.92V66.15h-1.16V38.55H120c5.26,0,7.23.81,8.74,2.25a7.2,7.2,0,0,1,2,5.33,6.78,6.78,0,0,1-6.52,7.26v.19l8,12.57Zm-2.71-15.8a6.4,6.4,0,0,0,1.41-4.24,6.16,6.16,0,0,0-1.69-4.52c-1.35-1.3-3.11-2-8-2h-3.78V52.58h3.78C124.68,52.58,126.77,52,128.19,50.35Z"/><path d="M136.48,59.15l1.14-.28c.67,4.08,3.64,6.44,7.83,6.44s7.19-2.71,7.19-6.38C152.64,50.58,138,53.34,138,45c0-3.92,3.15-6.67,7.26-6.67a7.88,7.88,0,0,1,7.43,4.17l-1,.62a6.83,6.83,0,0,0-6.5-3.73c-3.5,0-6.08,2.37-6.08,5.57,0,7.47,14.68,4.75,14.68,13.91,0,4.39-3.48,7.52-8.34,7.52S137.26,63.69,136.48,59.15Z"/><path d="M17.93,34.51c-8.33,0-13.5-5.61-13.5-14.63S9.61,5.28,18,5.28c6.12,0,10.55,2.93,12.47,8.25l.15.39-5.18,2-.15-.43A7.22,7.22,0,0,0,18,10.28c-5,0-8,3.59-8,9.6s3,9.63,8,9.63A7.4,7.4,0,0,0,25.37,24l.12-.4,5.3,1.64-.13.41C28.82,31.36,24.3,34.51,17.93,34.51ZM18,6.13C10,6.13,5.28,11.27,5.28,19.88S10,33.66,17.93,33.66c5.82,0,10-2.79,11.78-7.86L26,24.66a8.23,8.23,0,0,1-8.11,5.7c-5.44,0-8.83-4-8.83-10.48S12.49,9.43,18,9.43a8,8,0,0,1,8,5.37l3.58-1.37C27.61,8.72,23.53,6.13,18,6.13Z"/><path d="M57.46,34.12H51.94V22.37H40V34.12H34.52V5.67H40V17.36h11.9V5.67h5.52Zm-4.67-.85h3.82V6.52H52.79V18.21H39.2V6.52H35.37V33.27H39.2V21.53H52.79Z"/><path d="M87.32,34.12h-6l-2-6H68.79l-2.06,6h-6L71.1,5.67H77l.1.28ZM82,33.27H86.1L76.38,6.52H71.7L61.94,33.27h4.18l2.06-6H79.93ZM78.81,24h-9.5l4.3-12.59h1Zm-8.31-.85h7.13L74.09,12.6Z"/><path d="M113.54,34.12h-7.67L96.13,13.2V34.12H90.6V5.67h7.64L108,26.55V5.67h5.52Zm-7.13-.85h6.29V6.52h-3.83V28.05h-1.08L97.7,6.52H91.45V33.27h3.83V11.68h1.08Z"/><path d="M131.59,34.51c-8.24,0-13.35-5.64-13.35-14.7s5.17-14.53,13.5-14.53c6.13,0,10.57,2.93,12.5,8.25l.14.39-5.18,2-.14-.43a7.26,7.26,0,0,0-7.32-5.21c-5,0-8,3.56-8,9.53s3.12,9.7,8.36,9.7c4.33,0,7.06-2.26,7.39-6.08H131.9v-5h12.73V34.12H140l-.27-2.25A12.62,12.62,0,0,1,131.59,34.51Zm.15-28.38c-7.92,0-12.65,5.12-12.65,13.68s4.79,13.85,12.5,13.85a11.65,11.65,0,0,0,7.74-2.55l.12-.11h1.05l.29,2.27h3v-14h-11v3.28h7.66l0,.44c-.17,4.59-3.25,7.34-8.26,7.34-5.68,0-9.21-4.05-9.21-10.55s3.38-10.38,8.82-10.38a8,8,0,0,1,8,5.37l3.58-1.37C141.42,8.72,137.33,6.13,131.74,6.13Z"/><path d="M169.3,34.12H150.14V5.67h18.35v5H155.66v6.7h11.85v5H155.66V29.1H169.3ZM151,33.27h17.46V30H154.81V21.53h11.85V18.24H154.81V9.84h12.83V6.52H151Z"/><polygon points="170.23 47.7 164.23 39.69 158.22 47.7 157.47 47.14 164.23 38.13 170.98 47.14 170.23 47.7"/><path d="M74.85,81.45v2H74.3v-.35h0a.87.87,0,0,1-.4.28,1.43,1.43,0,0,1-.62.12c-.72,0-1.16-.39-1.16-1a.82.82,0,0,1,.49-.83,1.9,1.9,0,0,1,.84-.14h.9c0-.37,0-.58-.19-.71a.89.89,0,0,0-.62-.2,1.36,1.36,0,0,0-1,.45l-.34-.37a1.91,1.91,0,0,1,1.33-.55,1.38,1.38,0,0,1,1.13.43A1.35,1.35,0,0,1,74.85,81.45Zm-.55.5h-.87a1.1,1.1,0,0,0-.62.11.42.42,0,0,0-.18.39c0,.34.24.58.7.58a1,1,0,0,0,.7-.27A1,1,0,0,0,74.3,82Z"/><path d="M76.73,84.71l.15-.47a.73.73,0,0,0,.31.07.31.31,0,0,0,.28-.12c.08-.08.09-.21.09-.46V80.16h.56v3.67a1.18,1.18,0,0,1-.16.74.74.74,0,0,1-.62.25A2,2,0,0,1,76.73,84.71Zm.74-5.58a.37.37,0,0,1,.37-.38.38.38,0,1,1,0,.76A.37.37,0,0,1,77.47,79.13Z"/><path d="M82,82H79.65a1,1,0,0,0,1,1,1,1,0,0,0,.89-.43l.39.34a1.63,1.63,0,0,1-1.29.55,1.52,1.52,0,0,1-1.56-1.66,1.53,1.53,0,0,1,1.51-1.7A1.42,1.42,0,0,1,82,81.65,2,2,0,0,1,82,82Zm-2.34-.47h1.81s0,0,0-.06a.83.83,0,0,0-.88-.85A.94.94,0,0,0,79.66,81.48Z"/><path d="M85.48,81.45v2h-.55v-.35h-.05a.87.87,0,0,1-.4.28,1.43,1.43,0,0,1-.62.12c-.72,0-1.16-.39-1.16-1a.82.82,0,0,1,.49-.83,1.9,1.9,0,0,1,.84-.14h.9c0-.37-.05-.58-.19-.71a.89.89,0,0,0-.62-.2,1.36,1.36,0,0,0-1,.45l-.34-.37a1.91,1.91,0,0,1,1.33-.55,1.38,1.38,0,0,1,1.13.43A1.35,1.35,0,0,1,85.48,81.45Zm-.55.5h-.87a1.1,1.1,0,0,0-.62.11.42.42,0,0,0-.18.39c0,.34.24.58.7.58a1,1,0,0,0,.7-.27A1,1,0,0,0,84.93,82Z"/><path d="M86.61,80.16h.55v.29h0a1.37,1.37,0,0,1,1-.35,1.22,1.22,0,0,1,.77.24,1.37,1.37,0,0,1,.38,1.13v1.94h-.55V81.59c0-.48-.08-.69-.22-.83a.81.81,0,0,0-.56-.19.76.76,0,0,0-.6.24,1.13,1.13,0,0,0-.22.83v1.77h-.55Z"/><path d="M94.75,83.69a1,1,0,0,1-.42.86,2.07,2.07,0,0,1-1.09.26,2.2,2.2,0,0,1-1.12-.25.83.83,0,0,1-.42-.75,1.11,1.11,0,0,1,0-.23l.42-.3v0l-.08-.06a.75.75,0,0,1-.25-.57,1.07,1.07,0,0,1,.28-.69,1.35,1.35,0,0,1-.15-.62,1.18,1.18,0,0,1,1.26-1.21,1.3,1.3,0,0,1,.8.26l.5-.43.29.36-.5.42a1.41,1.41,0,0,1,.15.64,1.13,1.13,0,0,1-1.24,1.17,1.31,1.31,0,0,1-.8-.24.5.5,0,0,0-.11.29.34.34,0,0,0,.13.28.72.72,0,0,0,.44.11h.82a1.17,1.17,0,0,1,.82.21A.68.68,0,0,1,94.75,83.69Zm-.55.08a.28.28,0,0,0-.1-.25.61.61,0,0,0-.39-.09h-.82a1.66,1.66,0,0,1-.32,0l-.32.28a.57.57,0,0,0,0,.12.42.42,0,0,0,.16.37,1.46,1.46,0,0,0,.85.17,1.41,1.41,0,0,0,.75-.18A.43.43,0,0,0,94.2,83.77Zm-1.7-2.44a.66.66,0,0,0,.71.73.66.66,0,0,0,.7-.73.67.67,0,0,0-.7-.76A.68.68,0,0,0,92.5,81.33Z"/><path d="M95.33,81.78a1.59,1.59,0,1,1,1.58,1.68A1.52,1.52,0,0,1,95.33,81.78Zm2.62,0c0-.74-.37-1.21-1-1.21s-1,.47-1,1.21.36,1.22,1,1.22S98,82.52,98,81.78Z"/><path d="M99.61,83.31c-.12-.12-.17-.33-.17-.75V78.81H100v3.63c0,.27,0,.4.07.48a.33.33,0,0,0,.24.08l.22,0,.08.42a1.66,1.66,0,0,1-.49.07A.72.72,0,0,1,99.61,83.31Z"/><path d="M101.1,81.79c0-1.08.55-1.69,1.43-1.69a1.43,1.43,0,0,1,1,.39h0V78.81h.55v4.6h-.55v-.3h0a1.44,1.44,0,0,1-1,.35C101.65,83.46,101.1,82.85,101.1,81.79Zm2.55,0c0-.75-.39-1.22-1-1.22s-1,.42-1,1.22.4,1.21,1,1.21S103.65,82.54,103.65,81.79Z"/><path d="M105.24,79.13a.38.38,0,1,1,.38.38A.38.38,0,0,1,105.24,79.13Zm.1,1h.56v3.25h-.56Z"/><path d="M107.07,80.16h.55v.29h0a1.37,1.37,0,0,1,1-.35,1.22,1.22,0,0,1,.77.24,1.37,1.37,0,0,1,.38,1.13v1.94h-.55V81.59c0-.48-.07-.69-.22-.83a.79.79,0,0,0-.56-.19.76.76,0,0,0-.6.24,1.13,1.13,0,0,0-.22.83v1.77h-.55Z"/><path d="M113.65,83.69a1,1,0,0,1-.42.86,2.07,2.07,0,0,1-1.09.26,2.28,2.28,0,0,1-1.13-.25.84.84,0,0,1-.41-.75,1.11,1.11,0,0,1,0-.23l.42-.3v0l-.08-.06a.75.75,0,0,1-.25-.57,1.07,1.07,0,0,1,.28-.69,1.35,1.35,0,0,1-.15-.62,1.18,1.18,0,0,1,1.26-1.21,1.3,1.3,0,0,1,.8.26l.5-.43.29.36-.5.42a1.41,1.41,0,0,1,.15.64,1.13,1.13,0,0,1-1.24,1.17,1.31,1.31,0,0,1-.8-.24.5.5,0,0,0-.11.29.34.34,0,0,0,.13.28.72.72,0,0,0,.44.11h.82a1.17,1.17,0,0,1,.82.21A.68.68,0,0,1,113.65,83.69Zm-.55.08a.28.28,0,0,0-.1-.25.61.61,0,0,0-.39-.09h-.82a1.66,1.66,0,0,1-.32,0l-.32.28a.74.74,0,0,0,0,.12.43.43,0,0,0,.17.37,1.46,1.46,0,0,0,.85.17,1.41,1.41,0,0,0,.75-.18A.43.43,0,0,0,113.1,83.77Zm-1.7-2.44a.66.66,0,0,0,.71.73.66.66,0,0,0,.7-.73.67.67,0,0,0-.7-.76A.68.68,0,0,0,111.4,81.33Z"/><path d="M116,79.13a.37.37,0,0,1,.37-.38.38.38,0,1,1,0,.76A.37.37,0,0,1,116,79.13Zm.1,1h.55v3.25h-.55Z"/><path d="M117.84,80.16h.55v.29h0a1.37,1.37,0,0,1,1-.35,1.22,1.22,0,0,1,.77.24,1.37,1.37,0,0,1,.38,1.13v1.94H120V81.59c0-.48-.08-.69-.22-.83a.81.81,0,0,0-.56-.19.76.76,0,0,0-.6.24,1.13,1.13,0,0,0-.22.83v1.77h-.55Z"/><path d="M121.38,82.55l.51-.18a.83.83,0,0,0,.86.63c.4,0,.59-.16.59-.48a.41.41,0,0,0-.2-.37c-.23-.16-.8-.19-1.16-.36a.79.79,0,0,1-.49-.75,1,1,0,0,1,1.11-.94,1.19,1.19,0,0,1,1.18.77l-.48.21a.67.67,0,0,0-.71-.51c-.34,0-.55.16-.55.4a.37.37,0,0,0,.18.32c.25.16.84.16,1.25.39a.82.82,0,0,1,.43.78,1,1,0,0,1-1.15,1A1.39,1.39,0,0,1,121.38,82.55Z"/><path d="M125,82.51V80.63h-.53v-.47H125V79.3l.54-.4v1.26h.79v.47h-.79v1.8c0,.3.11.57.48.57a.88.88,0,0,0,.29,0l.1.45a2,2,0,0,1-.49.06A.88.88,0,0,1,125,82.51Z"/><path d="M127.14,79.13a.38.38,0,1,1,.38.38A.38.38,0,0,1,127.14,79.13Zm.1,1h.56v3.25h-.56Z"/><path d="M129.13,82.51V80.63h-.53v-.47h.54V79.3l.55-.4v1.26h.78v.47h-.78v1.8c0,.3.1.57.47.57a.88.88,0,0,0,.29,0l.1.45a2,2,0,0,1-.48.06A.88.88,0,0,1,129.13,82.51Z"/><path d="M131.69,83.22a1.3,1.3,0,0,1-.38-1.12V80.16h.55V82c0,.48.07.69.22.83a.79.79,0,0,0,.56.19.76.76,0,0,0,.6-.24,1.17,1.17,0,0,0,.21-.83V80.16H134v3.25h-.56v-.29h0a1.39,1.39,0,0,1-.95.34A1.13,1.13,0,0,1,131.69,83.22Z"/><path d="M135.34,82.51V80.63h-.53v-.47h.54V79.3l.54-.4v1.26h.79v.47h-.79v1.8c0,.3.11.57.48.57a.88.88,0,0,0,.29,0l.1.45a2,2,0,0,1-.48.06A.88.88,0,0,1,135.34,82.51Z"/><path d="M140.2,82h-2.34a1,1,0,0,0,1,1,1,1,0,0,0,.9-.43l.38.34a1.62,1.62,0,0,1-1.29.55,1.51,1.51,0,0,1-1.55-1.66,1.53,1.53,0,0,1,1.5-1.7,1.43,1.43,0,0,1,1.45,1.55A1.74,1.74,0,0,1,140.2,82Zm-2.33-.47h1.8v-.06a.83.83,0,0,0-.88-.85A.93.93,0,0,0,137.87,81.48Z"/><path d="M73.49,88.78H72v-.41h1.46V86.91h.42v1.46h1.46v.41H73.91v1.47h-.42Z"/><path d="M77.57,89c0-1.08.56-1.69,1.43-1.69a1.43,1.43,0,0,1,1,.39h0V86h.55v4.6h-.55v-.3h0a1.43,1.43,0,0,1-1,.35C78.12,90.66,77.57,90.05,77.57,89Zm2.55,0c0-.75-.39-1.22-1-1.22s-1,.42-1,1.22.4,1.21,1,1.21S80.12,89.74,80.12,89Z"/><path d="M81.71,86.33a.38.38,0,1,1,.38.38A.38.38,0,0,1,81.71,86.33Zm.1,1h.56v3.25h-.56Z"/><path d="M86.3,90.89a1,1,0,0,1-.42.86,2.07,2.07,0,0,1-1.09.26,2.28,2.28,0,0,1-1.13-.25.84.84,0,0,1-.41-.75,1,1,0,0,1,0-.22l.42-.31v0l-.08-.06a.75.75,0,0,1-.25-.57,1.07,1.07,0,0,1,.28-.69,1.35,1.35,0,0,1-.15-.62,1.18,1.18,0,0,1,1.26-1.21,1.3,1.3,0,0,1,.8.26l.5-.43.28.36-.49.42a1.41,1.41,0,0,1,.15.64,1.13,1.13,0,0,1-1.24,1.17,1.31,1.31,0,0,1-.8-.24.5.5,0,0,0-.11.29.34.34,0,0,0,.13.28.72.72,0,0,0,.44.11h.82a1.17,1.17,0,0,1,.82.21A.68.68,0,0,1,86.3,90.89Zm-.55.08a.26.26,0,0,0-.11-.25.58.58,0,0,0-.38-.09h-.82a1.66,1.66,0,0,1-.32,0l-.32.28a.74.74,0,0,0,0,.12.43.43,0,0,0,.17.37,1.46,1.46,0,0,0,.85.17,1.41,1.41,0,0,0,.75-.18A.43.43,0,0,0,85.75,91Zm-1.7-2.44a.66.66,0,0,0,.71.73.66.66,0,0,0,.7-.73.67.67,0,0,0-.7-.76A.68.68,0,0,0,84.05,88.53Z"/><path d="M87.07,86.33a.38.38,0,1,1,.38.38A.38.38,0,0,1,87.07,86.33Zm.1,1h.56v3.25h-.56Z"/><path d="M88.9,87.36h.54v.31h0a1.08,1.08,0,0,1,.87-.37,1,1,0,0,1,1,.49h0a1.3,1.3,0,0,1,1.09-.49,1.23,1.23,0,0,1,.78.24,1.57,1.57,0,0,1,.37,1.18v1.89H93V88.8c0-.5-.07-.71-.22-.85a.69.69,0,0,0-.51-.18.8.8,0,0,0-.51.16,1,1,0,0,0-.26.8v1.88H91V88.73c0-.44-.07-.66-.22-.79a.76.76,0,0,0-.52-.17.74.74,0,0,0-.48.15.92.92,0,0,0-.28.81v1.88H88.9Z"/><path d="M97.24,88.65v2h-.55v-.35h0a.91.91,0,0,1-.41.28,1.36,1.36,0,0,1-.61.12c-.72,0-1.16-.39-1.16-1a.82.82,0,0,1,.49-.83,1.9,1.9,0,0,1,.84-.14h.9a.91.91,0,0,0-.2-.71.87.87,0,0,0-.62-.2,1.36,1.36,0,0,0-1,.45l-.34-.37a1.91,1.91,0,0,1,1.32-.55,1.39,1.39,0,0,1,1.14.43A1.35,1.35,0,0,1,97.24,88.65Zm-.55.5h-.87a1.14,1.14,0,0,0-.63.11.44.44,0,0,0-.18.39c0,.34.24.58.7.58a1,1,0,0,0,.71-.27A1.07,1.07,0,0,0,96.69,89.15Z"/><path d="M98.37,86h.55v3h0l1.54-1.62h.69L100,88.56l1.3,2h-.65l-1.06-1.67h0l-.7.71v1h-.55Z"/><path d="M104.65,89.15H102.3a1,1,0,0,0,1,1,1,1,0,0,0,.9-.43l.38.34a1.62,1.62,0,0,1-1.29.55A1.52,1.52,0,0,1,101.72,89a1.54,1.54,0,0,1,1.51-1.7,1.43,1.43,0,0,1,1.45,1.55A1.74,1.74,0,0,1,104.65,89.15Zm-2.34-.47h1.81v-.06a.84.84,0,0,0-.88-.85A.94.94,0,0,0,102.31,88.68Z"/><path d="M105.62,87.36h.52l0,.29h0a1,1,0,0,1,.79-.35l.28,0v.57h0a1.09,1.09,0,0,0-.37-.07.64.64,0,0,0-.52.2c-.15.17-.2.46-.2,1v1.55h-.56Z"/><path d="M107.85,89.75l.51-.18a.83.83,0,0,0,.86.63c.39,0,.58-.16.58-.48a.41.41,0,0,0-.2-.37c-.23-.16-.8-.19-1.16-.36a.78.78,0,0,1-.48-.74,1,1,0,0,1,1.1-1,1.18,1.18,0,0,1,1.18.77l-.48.21a.66.66,0,0,0-.7-.51c-.34,0-.55.16-.55.4a.38.38,0,0,0,.17.32c.26.16.84.16,1.25.39a.82.82,0,0,1,.43.78,1,1,0,0,1-1.14,1A1.37,1.37,0,0,1,107.85,89.75Z"/><path d="M112.76,86.33a.37.37,0,0,1,.37-.38.38.38,0,1,1,0,.76A.37.37,0,0,1,112.76,86.33Zm.1,1h.55v3.25h-.55Z"/><path d="M114.59,87.36h.55v.29h0a1.37,1.37,0,0,1,1-.35,1.22,1.22,0,0,1,.77.24,1.37,1.37,0,0,1,.38,1.13v1.94h-.55V88.79c0-.48-.08-.69-.22-.83a.81.81,0,0,0-.56-.19.76.76,0,0,0-.6.24,1.13,1.13,0,0,0-.22.83v1.77h-.55Z"/><path d="M118.31,86.33a.38.38,0,0,1,.38-.38.38.38,0,0,1,0,.76A.38.38,0,0,1,118.31,86.33Zm.1,1H119v3.25h-.55Z"/><path d="M120.3,89.71V87.83h-.53v-.47h.53V86.5l.55-.4v1.26h.79v.47h-.79v1.8c0,.3.1.57.47.57a.94.94,0,0,0,.3,0l.09.45a1.88,1.88,0,0,1-.48.06A.87.87,0,0,1,120.3,89.71Z"/><path d="M122.45,86.33a.38.38,0,1,1,.38.38A.38.38,0,0,1,122.45,86.33Zm.1,1h.55v3.25h-.55Z"/><path d="M126.81,88.65v2h-.56v-.35h0a1,1,0,0,1-.41.28,1.36,1.36,0,0,1-.61.12c-.72,0-1.16-.39-1.16-1a.83.83,0,0,1,.48-.83,2,2,0,0,1,.85-.14h.89c0-.37,0-.58-.19-.71a.87.87,0,0,0-.62-.2,1.32,1.32,0,0,0-1,.45l-.34-.37a1.91,1.91,0,0,1,1.32-.55,1.36,1.36,0,0,1,1.13.43A1.3,1.3,0,0,1,126.81,88.65Zm-.56.5h-.86a1.12,1.12,0,0,0-.63.11.44.44,0,0,0-.18.39c0,.34.24.58.7.58A1,1,0,0,0,126,90,1,1,0,0,0,126.25,89.15Z"/><path d="M128.05,89.71V87.83h-.53v-.47h.54V86.5l.54-.4v1.26h.79v.47h-.79v1.8c0,.3.11.57.48.57a.88.88,0,0,0,.29,0l.09.45a1.88,1.88,0,0,1-.48.06A.87.87,0,0,1,128.05,89.71Z"/><path d="M130.2,86.33a.38.38,0,1,1,.38.38A.38.38,0,0,1,130.2,86.33Zm.1,1h.56v3.25h-.56Z"/><path d="M131.65,87.36h.6l1,2.83h.08l1-2.83h.6l-1.16,3.25h-.88Z"/><path d="M138.25,89.15H135.9a1,1,0,0,0,1,1,1,1,0,0,0,.89-.43l.39.34a1.63,1.63,0,0,1-1.29.55,1.69,1.69,0,0,1-.06-3.36,1.42,1.42,0,0,1,1.45,1.55A2,2,0,0,1,138.25,89.15Zm-2.34-.47h1.8v-.06a.83.83,0,0,0-.88-.85A.94.94,0,0,0,135.91,88.68Z"/><path d="M23.19,87.78h.9a1.35,1.35,0,0,1,1.48,1.3,1.25,1.25,0,0,1-1.43,1.34c-.7,0-.95-.22-.95-.86Zm-.69,2c0,.53-.14.69-.82.69h-.19v.16h3.06a1.62,1.62,0,0,0,1.8-1.59,1.52,1.52,0,0,0-1.24-1.4h0a1.1,1.1,0,0,0,.95-1,1.06,1.06,0,0,0-.51-.93,3.24,3.24,0,0,0-1.68-.33l-1.26,0-1.05,0v.16h.29c.59,0,.65.25.65.72Zm.69-4.24.74,0c1,0,1.38.54,1.38,1.12s-.4,1-1.21,1h-.91V85.56"/><path d="M28.64,88.31a4.61,4.61,0,0,1-.52,0V85.55a2.88,2.88,0,0,1,.42,0c1.29,0,1.64.6,1.64,1.38C30.18,87.91,29.57,88.31,28.64,88.31Zm6.18-2.7v-.16h-2v.16c.46,0,.62.15.62.6v3.56c0,.54-.1.68-.58.72a1.84,1.84,0,0,1-1.36-.75l-.66-.66a12.82,12.82,0,0,0-1-.87A1.42,1.42,0,0,0,31,86.86c0-.85-.7-1.49-2.24-1.49-.55,0-.72,0-1.06,0l-1.05,0v.16h.18c.49,0,.63.15.63.66v3.52c0,.56-.18.7-.67.7h-.14v.16H29v-.16h-.19c-.47,0-.67-.13-.67-.63V88.45l.43,0,.57,0a5.84,5.84,0,0,1,.86.74l.55.55a2.44,2.44,0,0,0,2.39.91h1.9v-.16c-.58,0-.71-.17-.71-.66V86.28c0-.56.18-.67.71-.67"/><path d="M35.39,89.38a1.44,1.44,0,0,0,1.41,1.17,1,1,0,0,0,1.15-1c0-1.21-2.68-1.57-2.68-3a1.34,1.34,0,0,1,1.49-1.21c.7,0,.84.21,1.13.21a.17.17,0,0,0,.15-.08h.14l.14,1.06h-.14a1.49,1.49,0,0,0-1.35-1,.83.83,0,0,0-.93.79c0,1.19,2.68,1.5,2.68,3a1.55,1.55,0,0,1-1.71,1.43,6.75,6.75,0,0,1-1.16-.23.2.2,0,0,0-.16.1H35.4l-.17-1.27h.16"/><path d="M41.8,89.88c0,.45.15.61.66.61h.31v.16H40.13v-.16h.31c.51,0,.66-.16.66-.61V85.75H39.65c-.33,0-.49.19-.61.93h-.15L39,85.32h.16a.12.12,0,0,0,.09.1.47.47,0,0,0,.17,0h4c.12,0,.24,0,.26-.13h.16L44,86.68h-.15c-.12-.74-.27-.93-.61-.93H41.8v4.13"/><path d="M50.13,87.91a2.75,2.75,0,0,0-2.93-2.59,2.85,2.85,0,0,0-3.06,2.84,2.78,2.78,0,0,0,3,2.62A2.87,2.87,0,0,0,50.13,87.91Zm-.78.27a2.14,2.14,0,0,1-2,2.39,2.48,2.48,0,0,1-2.4-2.66,2.18,2.18,0,0,1,2-2.38,2.43,2.43,0,0,1,2.37,2.65"/><path d="M54,90.65H50.28v-.16h.28c.38,0,.52-.13.52-.55V86.23c0-.44-.13-.62-.66-.62h-.11v-.16h2.46v.16h-.31c-.54,0-.68,0-.68.57V90c0,.22.09.31.33.31h1.23c.49,0,.64-.2,1.17-.92h.15L54,90.65"/><path d="M15,83.06a2.25,2.25,0,0,0-1.34-2,2.54,2.54,0,0,1,1.81,2.12c1.24.25,2.34.83,4.13.22h0a7.47,7.47,0,0,1-3.34-.69,1.61,1.61,0,0,0,1.29-.38c.2-.31.22-.62.73-.64.28,0,1.24.06,1.34-1.35-.31.52-.64.74-1.14.61-.32-.08-.91-.33-1.33.17a1.34,1.34,0,0,1-1.3.56c.23-.32,3.76-4.89,3.76-4.89l-4.77,3.83a1.33,1.33,0,0,1,.42-1.19,1,1,0,0,0,.29-1.24c-.24-.55-.21-.89.45-1.41a1.23,1.23,0,0,0-1.23,1.36c.05.58-.36.63-.51.72-.39.22-.45.85-.46,1.34,0-.16-.62-2.62-.82-3.42v6.62h0a4,4,0,0,1,2-.28"/><path d="M26.2,79.49v.11c-.41,0-.56.18-.56.57v1.68c0,.77-.49,1.59-1.84,1.59A1.57,1.57,0,0,1,22,81.88V80.07c0-.4-.11-.46-.53-.47v-.11h1.59v.11H23c-.34,0-.49.1-.49.46v1.72a1.25,1.25,0,0,0,1.41,1.34,1.25,1.25,0,0,0,1.41-1.35V80.33c0-.6-.09-.7-.6-.73v-.11H26.2"/><path d="M27,82.8c0,.34.08.42.41.42v.12H26.19v-.12a.36.36,0,0,0,.41-.39v-1.3c0-.23,0-.27-.18-.3l-.22,0v-.1l.72-.26H27v.49a2.39,2.39,0,0,1,1.06-.49c.42,0,.67.31.67.93,0,.82-.05,1-.05,1.23s.09.24.34.24h.14v.12H27.85v-.12a.5.5,0,0,0,.35-.11c.12-.12.13-.57.13-1.4,0-.5-.24-.65-.49-.65a1.78,1.78,0,0,0-.82.4V82.8"/><path d="M30.11,79.39a.26.26,0,0,1,.27.24.27.27,0,0,1-.54,0A.26.26,0,0,1,30.11,79.39Zm.26,3.48c0,.22.11.35.44.35v.12H29.44v-.12c.37,0,.51-.12.51-.45V81.53c0-.25,0-.28-.19-.31l-.29,0v-.1l.8-.28h.1v2.08"/><path d="M32.23,83.4l-.9-2.06c-.09-.22-.18-.29-.27-.31l-.2,0v-.11h1.27V81c-.38,0-.5.06-.35.35l.66,1.54.63-1.43c.11-.25.06-.43-.4-.46v-.11h1.08V81a.65.65,0,0,0-.49.45l-.85,2h-.18"/><path d="M36.06,81.77v-.15c-.2-.2-.18-.8-1-.8a1.25,1.25,0,0,0-1.19,1.32,1.17,1.17,0,0,0,1.07,1.28A1.49,1.49,0,0,0,36,82.78L36,82.7a1,1,0,0,1-.79.41A1,1,0,0,1,34.23,82a2.46,2.46,0,0,1,0-.26Zm-1.79-.16c.15-.58.46-.67.66-.67s.55.26.61.67H34.27"/><path d="M37.26,82.89c0,.25.09.33.4.33h.24v.12H36.43v-.12c.31,0,.41-.13.41-.46V81.33l-.41-.15v-.11l.71-.25h.12v.66h0c.31-.51.39-.62.59-.62a.39.39,0,0,1,.21,0,2.4,2.4,0,0,0,.32.09l-.15.38a1.65,1.65,0,0,1-.32-.1.63.63,0,0,0-.22-.07.3.3,0,0,0-.24.17,2.29,2.29,0,0,0-.2.31v1.2"/><path d="M38.82,82.71c.08.38.31.59.59.59a.43.43,0,0,0,.44-.41c0-.13,0-.21-.2-.38-.44-.44-.93-.48-.93-1a.72.72,0,0,1,.8-.69,1.38,1.38,0,0,1,.49.1v.56h-.1a.53.53,0,0,0-.5-.51.35.35,0,0,0-.37.34c0,.55,1.15.64,1.15,1.4a.73.73,0,0,1-.77.71.62.62,0,0,1-.27,0,.68.68,0,0,0-.17,0,.14.14,0,0,0-.11.08h-.09l-.07-.7h.1"/><path d="M41.25,79.39a.27.27,0,0,1,.28.24.26.26,0,0,1-.28.23.24.24,0,0,1-.26-.23A.25.25,0,0,1,41.25,79.39Zm.26,3.48c0,.22.11.35.44.35v.12H40.58v-.12c.38,0,.51-.12.51-.45V81.53c0-.25,0-.28-.19-.31l-.29,0v-.1l.8-.28h.1v2.08"/><path d="M43.72,80.89l-.1.27h-.79V82.6a.47.47,0,0,0,.41.52c.14,0,.26-.1.38-.31l.1.1a.77.77,0,0,1-.68.51.66.66,0,0,1-.62-.72V81.16h-.29v-.1a1.38,1.38,0,0,0,.6-.79h.1v.62h.89"/><path d="M46.17,81.57c.19-.47.07-.56-.3-.57v-.11h1V81c-.25,0-.39.2-.51.49l-1,2.63c-.19.46-.33.67-.55.67a.23.23,0,0,1-.25-.22c0-.26.35-.19.51-.35a1.3,1.3,0,0,0,.21-.35l.19-.47-1-2c-.12-.25-.23-.36-.49-.36v-.11h1.24V81c-.38,0-.42.12-.3.38l.7,1.51.53-1.32"/><path d="M48.29,82.13a1.34,1.34,0,1,0,1.34-1.31A1.3,1.3,0,0,0,48.29,82.13Zm.47-.21a.9.9,0,0,1,.79-1c.52,0,1,.6,1,1.31a.91.91,0,0,1-.78,1c-.53,0-1-.6-1-1.35"/><path d="M52.76,81.16h-.67v1.7c0,.28.12.36.46.36h.24v.12H51.26v-.12c.36,0,.42-.08.42-.42V81.16h-.46v-.11a1.67,1.67,0,0,0,.46-.16,1.6,1.6,0,0,1,.48-1.27,1.22,1.22,0,0,1,.88-.44c.34,0,.63.19.63.29s-.11.29-.16.29-.32-.3-.73-.3-.69.35-.69,1v.47h.63l0,.27"/><path d="M10.54,80.3A2.32,2.32,0,0,1,10.78,79c-1,.75-1,1.35-1,1.35S10,80.16,10.54,80.3Zm-.46-1.63s-1.2.17-1.55.2a2.19,2.19,0,0,0-.51.54l-.85.14A.84.84,0,0,0,7,80.89a2,2,0,0,0-.37-.07c-.48.3-.26.87.74.67-.28,0-.42-.14-.42-.32s.37-.44.84-.32c-.44-.83,0-1.16,0-1.16a1.23,1.23,0,0,0,.3,1.25.77.77,0,0,1,.7-.32c.47,0,.77.22.78.49s-.3.49-.69.49V81s-.13,0-.16.1,0,.47,0,.47a.76.76,0,0,1-.63-.33l-.84-.12,0,.19a.36.36,0,0,1,.29.29,1.15,1.15,0,0,0,.39.69,5.45,5.45,0,0,1,1.69-.39c-.83.11-1.67,1-2.89.66,1.93.66,2.13-.8,4.55-.34a2.82,2.82,0,0,0-.94-.3,1.37,1.37,0,0,0,.31-.83H11c0-.16.05-.33.05-.33H10A1.42,1.42,0,0,1,10.08,78.67Zm-2.7,0a1.66,1.66,0,0,0,.7-.19s-.13.32.16.3a2.52,2.52,0,0,0,.72-.2v-.42a2.09,2.09,0,0,1-.68.32c-.13,0-.08-.09-.07-.15s0-.12-.2,0c-.93.38-1,.12-1,.09S7,78.63,7.38,78.65Zm4.9-1.93v6.62c-2.67-1-3.78,1-6.61,0V76.72H7v.72h.77v-.72h.76v.72h.77v-.72h.77v.72h.83v-.72h1.36"/><path d="M14.82,85.73s0,0,0-.07,0,0,.06,0,.07,0,.11-.06-.06-.1-.1-.07l-.12.11S14.73,85.71,14.82,85.73Zm2.28,3.34a4.06,4.06,0,0,1-.52.29.3.3,0,0,0-.17.18,1.16,1.16,0,0,0-.12.43.67.67,0,0,0,.35-.2.23.23,0,0,0-.05-.12c0-.05,0-.12.08-.08a.09.09,0,0,0,.11,0s.66-.42.69-.47a3,3,0,0,1-.23-.26A.55.55,0,0,1,17.1,89.07Zm-2.46-1.75a1.46,1.46,0,0,1-.38-.21.36.36,0,0,0-.26.14c-.08.22-.27.57-.29.62a.12.12,0,0,0,0,.09s0,.17,0,.2a.37.37,0,0,0,0,.11,2.37,2.37,0,0,0,.1.31.61.61,0,0,0,.17-.35s0-.08-.07-.12,0-.1,0-.11a.13.13,0,0,0,.09-.11c0-.09.11-.39.13-.44s0,0,0,0,.05,0,.08,0l0,0,.26.22.16,0A.88.88,0,0,1,14.64,87.32Zm-.27-1.27s-.09.12,0,.15a.61.61,0,0,0,0,.13s.05,0,.08,0l.13-.16s.16,0,.11.06a.14.14,0,0,1-.1.07s-.05,0-.09,0-.08.09,0,.09.11,0,.15,0,.05,0,.05-.07,0-.06,0-.09a1.26,1.26,0,0,0,.16-.13.14.14,0,0,1,.11,0,.33.33,0,0,0,.33-.14.55.55,0,0,0,.06-.42.46.46,0,0,1,.09.38.36.36,0,0,1-.34.32,1.64,1.64,0,0,0-.29.67.56.56,0,0,0-.07.73l-.35.12a.26.26,0,0,0-.15,0s-.11.16-.07.23a3,3,0,0,1,.22.55.22.22,0,0,0,.1.19s.08,0,.14.09.13.14.19.19a.28.28,0,0,0,.19.07A.92.92,0,0,0,15,88.7c-.06-.06-.14,0-.16,0s-.05,0-.06-.06,0-.1,0-.17-.17-.29-.18-.31,0-.15.07-.15a4.13,4.13,0,0,0,.49.07c.06,0,.09,0,.11,0a.92.92,0,0,0,.17-.25c.09.07,0,.19,0,.33a1.85,1.85,0,0,0,1.31.09c.31-.08.27,0,.3,0a1.67,1.67,0,0,0,.53.66.68.68,0,0,1,.13.18.25.25,0,0,1,0,.19c0,.07-.2.37-.23.41a.51.51,0,0,1-.18.18c-.19.1-.24.19-.26.26h.48a.13.13,0,0,0,0-.09c0-.08.07-.09.09-.1s.07,0,.11-.08.35-.64.38-.69.11-.16,0-.21a.6.6,0,0,1-.29-.43c0-.07,0-.18.15-.38a.81.81,0,0,0-.66-1.28,3.65,3.65,0,0,1-.95-.08c-.1,0-.12-.07-.1-.14a.74.74,0,0,0,.05-.24.83.83,0,0,0-.24-.13c-.06,0-.09-.06,0-.07l.28,0a1.34,1.34,0,0,0,0-.3A1.62,1.62,0,0,0,16,85.9s-.06,0,0-.05.21,0,.29,0a.8.8,0,0,0-.12-.32,1.38,1.38,0,0,0-.27,0c-.07,0-.07,0,0,0a.83.83,0,0,1,.25,0,.81.81,0,0,0-.9-.42.6.6,0,0,1,.12.17s0,.07-.09,0a.54.54,0,0,0-.39-.21.54.54,0,0,1,.14.22,2.2,2.2,0,0,0-.35.36.09.09,0,0,0,0,.13Zm3.73-1.28a.73.73,0,0,0-.35,1.09c.21.32.39.32.52.7a.38.38,0,0,1-.26.51.54.54,0,0,0,.74-.2c.22-.28,0-.65.2-.84a.56.56,0,0,1,.3-.09.38.38,0,0,0-.59,0c-.09-.21-.34-.4-.25-.72a.32.32,0,0,1,.53-.12.25.25,0,0,1-.13.38A.35.35,0,0,0,19,85a.49.49,0,0,0-.48-.23c-.29,0-.77.33-.46,1C17.9,85.62,17.61,85.07,18.1,84.77ZM19.57,84v6.63c-3.66.89-3.77-1.06-6.61,0V84c2.61-1.09,3.63,1,6.61,0"/><path d="M8.07,87.8s-.11.08,0,.4.33.61,0,1c.18,0,.57-.23.15-.93A.91.91,0,0,1,8.07,87.8ZM7.68,88c.1,0,.11-.12.09-.18a.09.09,0,0,0-.17,0,.32.32,0,0,0,0,.18.13.13,0,0,0,.13.1C7.67,88,7.69,88,7.68,88Zm.09.43c0,.28-.18.32-.18.32-.28-.13-.44.22-.2.33s.48-.26.5-.33a1.73,1.73,0,0,0,0-.67c0-.28,0-.33.1-.33s.14,0,.24.28a.46.46,0,0,0,.3.33.79.79,0,0,1,.12-.94c.19-.21.59-.33.52-.62a.32.32,0,0,1-.18.13L8.67,87s.55-.26.65-.56a.74.74,0,0,1-.06.71.66.66,0,0,1,.46,0,.7.7,0,0,1-.22,1.33c-1.09.29-.7,1.13-.07,1.18-.07,0-.09-.29,0-.44s.16-.15.22.06a.46.46,0,0,0,.57.34.3.3,0,0,1-.1-.2c0-.13.18,0,.24,0,.42.12.65,0,.68,0l-.14,0c-.06,0-.17-.09,0-.14a.48.48,0,0,0,.33-.77.56.56,0,0,0-.63-.21c.41.09.43.42.22.59a.57.57,0,0,1-.79-.11A.3.3,0,0,0,10,89a.28.28,0,0,1,0-.46A1.42,1.42,0,0,0,10,86h0a1.76,1.76,0,0,0-1.7,0A1.64,1.64,0,0,1,10,85.78a.92.92,0,0,1-.18-.18.5.5,0,0,1-.07-.23c-.38.22-.48-.11-.48-.11s-.34.3-.55,0,.11-.5.11-.5c-2,.64-1.58,1.74-1.58,1.74a1.47,1.47,0,0,0-.35.89c-.07.71.29,1.21.73,1.08a.28.28,0,0,0,.17-.14ZM12.28,84v6.63c-2.84-1.06-2.95.89-6.61,0V84c3,1,4-1.09,6.61,0"/><rect x="63.22" y="76.73" width="0.17" height="16.68"/></svg>