<svg width="37" height="37" viewBox="0 0 37 37" xmlns="http://www.w3.org/2000/svg">
<path d="M17.7138 37.0001H11.8169V24.0732H25.1831V29.5307C25.1801 31.5108 24.3922 33.4089 22.992 34.809C21.5919 36.2091 19.6938 36.9971 17.7138 37.0001V37.0001ZM13.6785 35.127H17.7138C19.1991 35.127 20.6237 34.5378 21.675 33.4886C22.7263 32.4394 23.3185 31.016 23.3216 29.5307V25.9464H13.6785V35.127Z"/>
<path d="M29.5306 25.6346H23.6222V12.0371H37V18.1537C37 20.1357 36.2134 22.0368 34.813 23.4394C33.4125 24.842 31.5127 25.6315 29.5306 25.6346V25.6346ZM25.4953 23.7615H29.5306C31.0159 23.7584 32.4393 23.1662 33.4885 22.1149C34.5376 21.0636 35.1269 19.639 35.1269 18.1537V13.8755H25.4953V23.7615Z"/>
<path d="M25.1831 25.6346H11.8169V12.0371H25.1831V25.6346ZM13.6206 23.7615H23.2638V13.8755H13.6785L13.6206 23.7615Z"/>
<path d="M13.3778 13.5975H0V7.46938C0.00305802 5.48931 0.79099 3.59122 2.19111 2.19111C3.59122 0.79099 5.48931 0.00305802 7.46938 0L13.3778 0V13.5975ZM1.87313 11.7244H11.5625V1.87313H7.46938C5.98516 1.87313 4.56173 2.46273 3.51223 3.51223C2.46273 4.56173 1.87313 5.98516 1.87313 7.46938V11.7244Z"/>
<path d="M37 13.5975H23.6222V0H29.5306C31.5107 0.00305802 33.4088 0.79099 34.8089 2.19111C36.209 3.59122 36.9969 5.48931 37 7.46938V13.5975ZM25.4953 11.7244H35.1269V7.46938C35.1269 5.98516 34.5373 4.56173 33.4878 3.51223C32.4383 2.46273 31.0148 1.87313 29.5306 1.87313H25.4953V11.7244Z"/>
<path d="M25.1831 13.5975H11.8169V0H25.1831V13.5975ZM13.6206 11.7244H23.2638V1.87313H13.6785L13.6206 11.7244Z"/>
<path d="M13.3778 37.0001H7.46938C5.48931 36.9971 3.59122 36.2091 2.19111 34.809C0.79099 33.4089 0.00305802 31.5108 0 29.5307L0 24.0732H13.3778V37.0001ZM1.87313 25.9464V29.5307C1.87313 31.015 2.46273 32.4384 3.51223 33.4879C4.56173 34.5374 5.98516 35.127 7.46938 35.127H11.5625V25.9464H1.87313Z"/>
<path d="M13.3778 25.6346H0V12.0371H13.3778V25.6346ZM1.87313 23.7615H11.5625V13.8755H1.87313V23.7615Z"/>
</svg>
