<svg xmlns="http://www.w3.org/2000/svg" viewBox="-25 -30 250 250" xml:space="preserve">
<path d="M25,25v110h175V25H25z M123.6,76.5c-1,2.3-2.3,4.3-4.1,6.1l-31.9,32l-31.9-32c-1.8-1.8-3.2-3.8-4.1-6.1
	c-1-2.3-1.4-4.7-1.4-7.3c0-2.6,0.5-5.1,1.5-7.4c1-2.3,2.3-4.3,4.1-6c1.7-1.7,3.7-3.1,6-4.1c2.3-1,4.8-1.5,7.4-1.5
	c2,0,3.9,0.3,5.5,0.8c1.6,0.5,3.1,1.2,4.4,2.1c1.4,0.9,2.6,1.9,3.9,3s2.5,2.4,3.7,3.7l1.1,1.1l1.2-1.2c1.3-1.3,2.5-2.5,3.7-3.7
	c1.2-1.2,2.5-2.2,3.8-3c1.3-0.9,2.8-1.5,4.4-2s3.4-0.7,5.4-0.7c2.6,0,5.1,0.5,7.4,1.5c2.3,1,4.3,2.3,6,4.1c1.7,1.7,3.1,3.7,4.1,6
	c1,2.3,1.5,4.8,1.5,7.4C125,71.8,124.5,74.2,123.6,76.5z M225,88.1h-75V76.9h75V88.1z"/>
</svg>
