<svg xmlns="http://www.w3.org/2000/svg" viewBox="-4 0 36 36" style="fill-rule:nonzero;clip-rule:evenodd;stroke-linejoin:round;stroke-miterlimit:1.41421;">
<path d="M19.186,5.538l0,5.539l9.592,5.539l0,-5.539l-9.592,-5.539Zm-19.186,5.539l0,5.539l4.796,2.768l0,-5.538l-4.796,-2.769Zm14.389,2.769l-4.796,2.77l0,16.615l4.796,2.769l0,-11.077l4.797,2.769l0,-5.538l-4.797,-2.77l0,-5.538Z"/>
<path d="M19.186,5.538l-14.39,8.308l0,5.538l9.593,-5.538l0,5.538l4.797,-2.768l0,-11.078Zm14.389,2.77l-4.797,2.769l0,5.539l4.797,-2.77l0,-5.538Zm-9.593,11.076l-4.796,2.77l0,5.538l4.796,-2.769l0,-5.539Zm-4.796,8.308l-4.797,-2.769l0,11.077l4.797,-2.769l0,-5.539Z" style="fill-opacity:0.701961;"/>
<path d="M19.186,0l-19.186,11.077l4.796,2.769l14.39,-8.308l9.592,5.539l4.797,-2.769l-14.389,-8.308Zm0,16.616l-4.797,2.768l4.797,2.77l4.796,-2.77l-4.796,-2.768Z" style="fill-opacity:0.4;"/>
</svg>