<svg xmlns="http://www.w3.org/2000/svg" xmlns="http://www.w3.org/2000/svg" viewBox="0 0 300 300" xml:space="preserve">
	<path d="M150,107.6c10.5,0,19-8.5,19-19c0-10.3-8.7-19-19-19c-10.3,0-19,8.7-19,19C131,99.1,139.5,107.6,150,107.6z"/>
	<path d="M150,0C67.7,0,0,67.7,0,150s67.7,150,150,150s150-67.7,150-150S232.3,0,150,0z M150,50.5c21,0,38.1,17.1,38.1,38.1
		c0,21-17.1,38.1-38.1,38.1c-21,0-38.1-17.1-38.1-38.1C111.9,67.6,129,50.5,150,50.5z M254.3,82.8c-53.4,26.7-80.4,86.3-80.4,177.2
		c0,5.3-4.3,9.5-9.5,9.5h-28.6c-5.3,0-9.5-4.3-9.5-9.5c0-90.9-27.1-150.5-80.4-177.2c-4.7-2.4-6.6-8.1-4.3-12.8
		c2.4-4.7,8.1-6.6,12.8-4.3c58.4,29.2,89,91.3,90.9,184.7h9.7c1.9-93.4,32.5-155.5,90.9-184.7c4.7-2.4,10.4-0.4,12.8,4.3
		C260.9,74.7,259,80.5,254.3,82.8z"/>
</svg>
