<svg xmlns="http://www.w3.org/2000/svg" viewBox="0 0 300 300" xml:space="preserve">
<g>
	<g>
		<path fill="#009EE2" d="M69.5,112.5c-20.5,0-37.2,16.8-37.2,37.5c0,20.7,16.6,37.5,37.2,37.5c13.1,0,25.2-7,31.9-18.3l-31.9-18.9
			l32.2-18.8C95.2,119.8,82.9,112.5,69.5,112.5z"/>
		<path fill="#009EE2" d="M116.4,144.8c-4,0-7.2,3.2-7.2,7.2c0,4,3.2,7.2,7.2,7.2c4,0,7.2-3.2,7.2-7.2
			C123.6,148,120.4,144.8,116.4,144.8z"/>
		<circle fill="#009EE2" cx="202.4" cy="152" r="7.2"/>
		<path fill="#009EE2" d="M155.8,130.6c1.1-0.9,3-1.3,5.5-1.3c4.8,0,10.6,1.5,17.3,4.6l5.9-14.9c-7.7-3.4-15.2-5.1-22.6-5.1
			c-8.4,0-14.9,1.8-19.7,5.5c-4.8,3.7-7.2,8.8-7.2,15.4c0,3.5,0.6,6.5,1.7,9.1c1.1,2.6,2.8,4.8,5.2,6.8c2.3,2,5.8,4,10.5,6.1
			c5.1,2.3,8.3,3.8,9.5,4.6c1.2,0.7,2,1.5,2.6,2.2c0.5,0.7,0.8,1.6,0.8,2.6c0,1.6-0.7,2.8-2,3.8c-1.3,1-3.4,1.5-6.3,1.5
			c-3.3,0-7-0.5-10.9-1.6c-4-1.1-7.8-2.5-11.5-4.4v17.2c3.5,1.7,6.8,2.8,10,3.5c3.2,0.7,7.2,1,11.9,1c5.7,0,10.6-1,14.9-2.9
			c4.2-1.9,7.5-4.6,9.7-8c2.2-3.4,3.4-7.4,3.4-11.8c0-4.8-1.2-8.8-3.6-12c-2.4-3.2-6.7-6.1-12.8-8.9c-6.4-2.9-10.3-4.9-11.8-6
			c-1.4-1.1-2.2-2.4-2.2-3.8C154.1,132.6,154.6,131.5,155.8,130.6z"/>
		<path fill="#009EE2" d="M251.3,143.7c-6.4-2.9-10.3-4.9-11.8-6c-1.4-1.1-2.2-2.4-2.2-3.8c0-1.3,0.6-2.4,1.7-3.3
			c1.1-0.9,3-1.3,5.5-1.3c4.8,0,10.6,1.5,17.3,4.6l5.9-14.9c-7.7-3.4-15.2-5.1-22.6-5.1c-8.4,0-14.9,1.8-19.7,5.5
			c-4.8,3.7-7.2,8.8-7.2,15.4c0,3.5,0.6,6.5,1.7,9.1c1.1,2.6,2.8,4.8,5.2,6.8c2.3,2,5.8,4,10.5,6.1c5.1,2.3,8.3,3.8,9.5,4.6
			c1.2,0.7,2,1.5,2.6,2.2c0.5,0.7,0.8,1.6,0.8,2.6c0,1.6-0.7,2.8-2,3.8c-1.3,1-3.4,1.5-6.3,1.5c-3.3,0-7-0.5-10.9-1.6
			c-4-1.1-7.8-2.5-11.5-4.4v17.2c3.5,1.7,6.8,2.8,10,3.5c3.2,0.7,7.2,1,11.9,1c5.7,0,10.6-1,14.9-2.9c4.2-1.9,7.5-4.6,9.7-8
			c2.2-3.4,3.4-7.4,3.4-11.8c0-4.8-1.2-8.8-3.6-12C261.7,149.4,257.4,146.4,251.3,143.7z"/>
	</g>
	<g>
		<path fill="#FFDD00" d="M97.2,125H41.8c-3.2,3.6-5.7,7.8-7.4,12.5h57l10.4-6C100.5,129.1,98.9,127,97.2,125z"/>
		<path fill="#FFDD00" d="M154.1,133.9c0-1.3,0.6-2.4,1.7-3.3c1.1-0.9,3-1.3,5.5-1.3c4.8,0,10.6,1.5,17.3,4.6l3.5-8.9h-44.7
			c-1.5,2.8-2.3,6-2.3,9.7c0,1,0.1,1.9,0.1,2.8h21C154.7,136.4,154.1,135.2,154.1,133.9z"/>
		<path fill="#FFDD00" d="M237.3,133.9c0-1.3,0.6-2.4,1.7-3.3c1.1-0.9,3-1.3,5.5-1.3c4.8,0,10.6,1.5,17.3,4.6l3.5-8.9h-44.7
			c-1.5,2.8-2.3,6-2.3,9.7c0,1,0.1,1.9,0.1,2.8h21C238,136.4,237.3,135.2,237.3,133.9z"/>
	</g>
	<g>
		<path fill="#E95A0C" d="M34.5,137.5c-1.4,3.9-2.1,8.1-2.1,12.5c0,0,0,0,0,0H70l21.4-12.5H34.5z"/>
		<path fill="#868686" d="M116.4,144.8c-3.3,0-6.1,2.2-7,5.2h13.9C122.4,147,119.7,144.8,116.4,144.8z"/>
		<path fill="#868686" d="M202.4,144.8c-3.3,0-6.1,2.2-7,5.2h13.9C208.5,147,205.7,144.8,202.4,144.8z"/>
		<path fill="#E95A0C" d="M156.2,137.6c0,0-0.1-0.1-0.1-0.1h-21c0.2,2.4,0.7,4.5,1.5,6.3c1,2.3,2.5,4.3,4.5,6.2h37.3
			c-2.5-2.2-5.9-4.3-10.4-6.3C161.6,140.7,157.7,138.7,156.2,137.6z"/>
		<path fill="#E95A0C" d="M239.5,137.6c0,0-0.1-0.1-0.1-0.1h-21c0.2,2.4,0.7,4.5,1.5,6.3c1,2.3,2.5,4.3,4.5,6.2h37.3
			c-2.5-2.2-5.9-4.3-10.4-6.3C244.9,140.7,241,138.7,239.5,137.6z"/>
	</g>
	<g>
		<path fill="#E20613" d="M70,150H32.3c0,4.4,0.8,8.6,2.1,12.5h55.7l-20.6-12.2L70,150z"/>
		<path fill="#868686" d="M116.4,159.3c4,0,7.2-3.2,7.2-7.2c0-0.7-0.1-1.4-0.3-2h-13.9c-0.2,0.6-0.3,1.3-0.3,2
			C109.1,156,112.4,159.3,116.4,159.3z"/>
		<path fill="#868686" d="M202.4,159.3c4,0,7.2-3.2,7.2-7.2c0-0.7-0.1-1.4-0.3-2h-13.9c-0.2,0.6-0.3,1.3-0.3,2
			C195.2,156,198.4,159.3,202.4,159.3z"/>
		<path fill="#E20613" d="M178.4,150h-37.3c0.2,0.2,0.5,0.5,0.7,0.7c2.3,2,5.8,4,10.5,6.1c5.1,2.3,8.3,3.8,9.5,4.6
			c0.6,0.4,1.1,0.7,1.5,1.1h21c-0.3-3.9-1.5-7.2-3.5-10C180.1,151.7,179.3,150.8,178.4,150z"/>
		<path fill="#E20613" d="M261.7,150h-37.3c0.2,0.2,0.5,0.5,0.7,0.7c2.3,2,5.8,4,10.5,6.1c5.1,2.3,8.3,3.8,9.5,4.6
			c0.6,0.4,1.1,0.7,1.5,1.1h21c-0.3-3.9-1.5-7.2-3.5-10C263.4,151.7,262.6,150.8,261.7,150z"/>
	</g>
	<g>
		<path fill="#81358A" d="M267.7,164.5v-2h-0.1C267.6,163.2,267.7,163.8,267.7,164.5z"/>
		<path fill="#81358A" d="M90.2,162.5H34.5c1.6,4.7,4.1,8.9,7.4,12.5h55.4c1.6-1.8,3-3.7,4.2-5.8L90.2,162.5z"/>
		<path fill="#81358A" d="M184.3,162.5h-21c0.4,0.4,0.8,0.7,1.1,1.1c0.5,0.7,0.8,1.6,0.8,2.6c0,1.6-0.7,2.8-2,3.8
			c-1.3,1-3.4,1.5-6.3,1.5c-3.3,0-7-0.5-10.9-1.6c-4-1.1-7.8-2.5-11.5-4.4v9.5h47.3c1.7-3.1,2.6-6.6,2.6-10.5
			C184.4,163.8,184.4,163.2,184.3,162.5z"/>
		<path fill="#81358A" d="M246.5,162.5c0.4,0.4,0.8,0.7,1.1,1.1c0.5,0.7,0.8,1.6,0.8,2.6c0,1.6-0.7,2.8-2,3.8
			c-1.3,1-3.4,1.5-6.3,1.5c-3.3,0-7-0.5-10.9-1.6c-4-1.1-7.8-2.5-11.5-4.4v9.5h47.3c1.7-3.1,2.6-6.6,2.6-10.5c0-0.7,0-1.4-0.1-2
			H246.5z"/>
	</g>
	<g>
		<path fill="#00973A" d="M69.5,112.5L69.5,112.5c-11,0-20.9,4.8-27.7,12.5h55.3C90.2,117.2,80.2,112.5,69.5,112.5z"/>
		<path fill="#00973A" d="M161.8,113.9c-8.4,0-14.9,1.8-19.7,5.5c-2.1,1.6-3.7,3.5-4.8,5.6H182l2.4-6
			C176.7,115.6,169.2,113.9,161.8,113.9z"/>
		<path fill="#00973A" d="M225.4,119.4c-2.1,1.6-3.7,3.5-4.8,5.6h44.7l2.4-6c-7.7-3.4-15.2-5.1-22.6-5.1
			C236.7,113.9,230.2,115.7,225.4,119.4z"/>
	</g>
	<g>
		<path fill="none" stroke="#FFFFFF" stroke-width="0.7087" stroke-miterlimit="10" d="M69.5,112.5c-20.5,0-37.2,16.8-37.2,37.5
			c0,20.7,16.6,37.5,37.2,37.5c13.1,0,25.2-7,31.9-18.3l-31.9-18.9l32.2-18.8C95.2,119.8,82.9,112.5,69.5,112.5z"/>
		<path fill="none" stroke="#FFFFFF" stroke-width="0.7087" stroke-miterlimit="10" d="M116.4,144.8c-4,0-7.2,3.2-7.2,7.2
			c0,4,3.2,7.2,7.2,7.2c4,0,7.2-3.2,7.2-7.2C123.6,148,120.4,144.8,116.4,144.8z"/>
		<circle fill="none" stroke="#FFFFFF" stroke-width="0.7087" stroke-miterlimit="10" cx="202.4" cy="152" r="7.2"/>
		<path fill="none" stroke="#FFFFFF" stroke-width="0.7087" stroke-miterlimit="10" d="M155.8,130.6c1.1-0.9,3-1.3,5.5-1.3
			c4.8,0,10.6,1.5,17.3,4.6l5.9-14.9c-7.7-3.4-15.2-5.1-22.6-5.1c-8.4,0-14.9,1.8-19.7,5.5c-4.8,3.7-7.2,8.8-7.2,15.4
			c0,3.5,0.6,6.5,1.7,9.1c1.1,2.6,2.8,4.8,5.2,6.8c2.3,2,5.8,4,10.5,6.1c5.1,2.3,8.3,3.8,9.5,4.6c1.2,0.7,2,1.5,2.6,2.2
			c0.5,0.7,0.8,1.6,0.8,2.6c0,1.6-0.7,2.8-2,3.8c-1.3,1-3.4,1.5-6.3,1.5c-3.3,0-7-0.5-10.9-1.6c-4-1.1-7.8-2.5-11.5-4.4v17.2
			c3.5,1.7,6.8,2.8,10,3.5c3.2,0.7,7.2,1,11.9,1c5.7,0,10.6-1,14.9-2.9c4.2-1.9,7.5-4.6,9.7-8c2.2-3.4,3.4-7.4,3.4-11.8
			c0-4.8-1.2-8.8-3.6-12c-2.4-3.2-6.7-6.1-12.8-8.9c-6.4-2.9-10.3-4.9-11.8-6c-1.4-1.1-2.2-2.4-2.2-3.8
			C154.1,132.6,154.6,131.5,155.8,130.6z"/>
		<path fill="none" stroke="#FFFFFF" stroke-width="0.7087" stroke-miterlimit="10" d="M251.3,143.7c-6.4-2.9-10.3-4.9-11.8-6
			c-1.4-1.1-2.2-2.4-2.2-3.8c0-1.3,0.6-2.4,1.7-3.3c1.1-0.9,3-1.3,5.5-1.3c4.8,0,10.6,1.5,17.3,4.6l5.9-14.9
			c-7.7-3.4-15.2-5.1-22.6-5.1c-8.4,0-14.9,1.8-19.7,5.5c-4.8,3.7-7.2,8.8-7.2,15.4c0,3.5,0.6,6.5,1.7,9.1c1.1,2.6,2.8,4.8,5.2,6.8
			c2.3,2,5.8,4,10.5,6.1c5.1,2.3,8.3,3.8,9.5,4.6c1.2,0.7,2,1.5,2.6,2.2c0.5,0.7,0.8,1.6,0.8,2.6c0,1.6-0.7,2.8-2,3.8
			c-1.3,1-3.4,1.5-6.3,1.5c-3.3,0-7-0.5-10.9-1.6c-4-1.1-7.8-2.5-11.5-4.4v17.2c3.5,1.7,6.8,2.8,10,3.5c3.2,0.7,7.2,1,11.9,1
			c5.7,0,10.6-1,14.9-2.9c4.2-1.9,7.5-4.6,9.7-8c2.2-3.4,3.4-7.4,3.4-11.8c0-4.8-1.2-8.8-3.6-12
			C261.7,149.4,257.4,146.4,251.3,143.7z"/>
	</g>
</g>
</svg>
