<svg xmlns="http://www.w3.org/2000/svg" viewBox="0 0 300 300"><title>20190406</title><path d="M125,260a15,15,0,0,1,12.5,6.72V200h25v66.72a15,15,0,0,1,25,0V175h-75v91.72A15,15,0,0,1,125,260Z" fill="#262262"/><path d="M150,75a25,25,0,1,0-25-25A25,25,0,0,0,150,75Z" fill="#c49a6c"/><path d="M254.44,78.06C224.59,85.77,187.63,90,150,90S75.41,85.77,45.56,78.06l-5,20.15c26.59,6.92,53.81,10.23,72.19,11.8l2.29.19v72.3h70V110.2l2.29-.19c18.38-1.57,45.6-4.88,72.19-11.8Z" fill="#231f20"/><path d="M180,187.5H120l-5-5h70Z" fill="#fff"/><path d="M256.25,75c-28.82,7.73-62,11.55-93.76,12.34v.16a12.5,12.5,0,0,1-25,0v-.16C105.77,86.55,72.57,82.73,43.75,75L37.5,100c23.25,6.25,50,10.38,75,12.5V185h75V112.5c25-2.12,51.75-6.25,75-12.5Z" fill="#fcf"/><path d="M137.38,210l-6-122.85C101.51,86,70.71,82.23,43.75,75L37.5,100c23.25,6.25,50,10.38,75,12.5V210Z" fill="#339" stroke="#339" stroke-miterlimit="10" stroke-width="5"/><path d="M256.25,75c-27,7.23-57.76,11-87.61,12.15l-6,122.85H187.5V112.5c25-2.12,51.75-6.25,75-12.5Z" fill="#339" stroke="#339" stroke-miterlimit="10" stroke-width="5"/><path d="M112.5,275a12.5,12.5,0,0,1,25,0Z" fill="#231f20"/><path d="M162.5,275a12.5,12.5,0,0,1,25,0Z" fill="#231f20"/></svg>