<svg xmlns="http://www.w3.org/2000/svg" viewBox="0 0 300 300"><title>20190401</title><path d="M125,260a15,15,0,0,1,12.5,6.72V200h25v66.72a15,15,0,0,1,25,0V187.5h-75v79.22A15,15,0,0,1,125,260Z" fill="#903"/><path d="M150,75a25,25,0,1,0-25-25A25,25,0,0,0,150,75Z" fill="#c49a6c"/><path d="M256.25,75c-28.82,7.73-62,11.55-93.76,12.34v.16a12.5,12.5,0,0,1-25,0v-.16C105.77,86.55,72.57,82.73,43.75,75L37.5,100c23.25,6.25,50,10.38,75,12.5V185h75V112.5c25-2.12,51.75-6.25,75-12.5Z" fill="#ff5faa"/><path d="M150,97.5a10,10,0,0,0,9.7-7.6c-3.22.06-6.45.1-9.69.1s-6.48,0-9.71-.11A10,10,0,0,0,150,97.5Z" fill="#f06"/><path d="M112.5,275a12.5,12.5,0,0,1,25,0Z" fill="#262262"/><path d="M162.5,275a12.5,12.5,0,0,1,25,0Z" fill="#262262"/></svg>